<?xml version="1.0" encoding="utf-8"?>
<!-- Generator: Adobe Illustrator 26.0.1, SVG Export Plug-In . SVG Version: 6.00 Build 0)  -->
<svg version="1.1" id="Layer_1" xmlns="http://www.w3.org/2000/svg" xmlns:xlink="http://www.w3.org/1999/xlink" x="0px" y="0px"
	 viewBox="0 0 532.2 169.3" style="enable-background:new 0 0 532.2 169.3;" xml:space="preserve">
<style type="text/css">
	.st0{fill:#F40058;}
	.st1{fill:#EFA500;}
	.st2{fill:#43BEE5;}
	.st3{fill:#FFFFFF;}
</style>
<polygon class="st0" points="62.6,169.3 62.6,64.2 112.2,33.3 112.2,62.6 85.7,79 85.2,154.4 "/>
<polygon class="st1" points="28.2,85.3 28.2,155.8 52.3,137.4 52.3,70 "/>
<path class="st2" d="M27.4,74.5l71.8-45.8V0L0,63.1V92l27.2-17.3C27.2,74.5,27.3,74.5,27.4,74.5z"/>
<g>
	<path class="st3" d="M173.5,129.1c-5.8,0-10.3-1.4-13.4-4.3c-3.1-2.9-4.7-7.5-4.7-14V83.1h-8.2V70h8.3V58.1l15.3-1.6V70h12.5v13.1
		h-12.5V110c0,3.6,1.6,5.5,4.8,5.5h6.4v13.6H173.5L173.5,129.1z"/>
	<path class="st3" d="M189.8,129.1V70h14.9v11.2c1-4.2,3-7.5,6-9.7s7.1-3.2,12.3-2.9v14.5h-2.2c-4.4,0-8.1,1.4-11.1,4.2
		s-4.5,6.7-4.5,11.6v30.2H189.8z"/>
	<path class="st3" d="M251.4,130.5c-4.2,0-8.1-1-11.5-3s-6.1-4.8-8.1-8.5s-3-8-3-12.9V70h15.4v32.4c0,5.1,1,8.8,3.1,11.1
		c2,2.3,5,3.5,8.7,3.5c3.3,0,6.1-1.2,8.6-3.5s3.7-6.1,3.7-11.1V70h15.3v59.1h-14.9v-8.9c-1.4,3.4-3.5,6-6.3,7.7
		C259.7,129.6,256,130.5,251.4,130.5z"/>
	<path class="st3" d="M322.4,130.6c-6.1,0-11.4-1.4-16-4.2s-8.2-6.5-10.7-11.2s-3.8-9.8-3.8-15.5s1.3-10.9,4-15.6s6.3-8.5,10.9-11.3
		s9.8-4.2,15.7-4.2s11.1,1.4,15.6,4.2s8,6.6,10.6,11.3c2.5,4.7,3.8,9.9,3.8,15.6c0,0.8,0,1.7-0.1,2.6s-0.2,1.9-0.3,2.8h-44.2
		c0.8,3.5,2.5,6.3,5.1,8.5c2.5,2.2,5.7,3.3,9.6,3.3c3.3,0,6.2-0.8,8.7-2.3s4.4-3.4,5.7-5.7l11.9,9c-2.3,3.7-5.9,6.7-10.6,9.1
		C333.5,129.4,328.2,130.6,322.4,130.6L322.4,130.6z M322.1,81.7c-3.6,0-6.7,1.1-9.3,3.3s-4.3,5.1-5.1,8.6h29.2
		c-0.8-3.3-2.6-6.1-5.2-8.4S325.9,81.7,322.1,81.7z"/>
	<path class="st3" d="M360.4,129.1V70h14.9v11.2c1-4.2,3-7.5,6-9.7s7.1-3.2,12.3-2.9v14.5h-2.2c-4.4,0-8.1,1.4-11.1,4.2
		s-4.5,6.7-4.5,11.6v30.2H360.4L360.4,129.1z"/>
	<path class="st3" d="M425.5,130.6c-6.1,0-11.4-1.4-16-4.2s-8.2-6.5-10.7-11.2s-3.8-9.8-3.8-15.5s1.3-10.9,4-15.6s6.3-8.5,10.9-11.3
		s9.8-4.2,15.7-4.2s11.1,1.4,15.6,4.2s8,6.6,10.6,11.3c2.5,4.7,3.8,9.9,3.8,15.6c0,0.8,0,1.7-0.1,2.6s-0.2,1.9-0.3,2.8H411
		c0.8,3.5,2.5,6.3,5.1,8.5c2.5,2.2,5.7,3.3,9.6,3.3c3.3,0,6.2-0.8,8.7-2.3s4.4-3.4,5.7-5.7l11.9,9c-2.3,3.7-5.9,6.7-10.6,9.1
		C436.6,129.4,431.4,130.6,425.5,130.6L425.5,130.6z M425.3,81.7c-3.6,0-6.7,1.1-9.3,3.3s-4.3,5.1-5.1,8.6h29.2
		c-0.8-3.3-2.6-6.1-5.2-8.4S429.1,81.7,425.3,81.7z"/>
	<path class="st3" d="M465.6,129.1v-46h-8.3V70h8.3v-4c0-6,1.8-10.8,5.3-14.4c3.6-3.6,8.3-5.5,14.3-5.5h6.4v13.1h-4
		c-4.5,0-6.7,2.3-6.7,7v3.7h12v13.2h-12v46H465.6L465.6,129.1z"/>
	<path class="st3" d="M504.9,129.1v-46h-8.3V70h8.3v-4c0-6,1.8-10.8,5.3-14.4c3.6-3.6,8.3-5.5,14.3-5.5h6.4v13.1h-4
		c-4.5,0-6.7,2.3-6.7,7v3.7h12v13.2h-12v46H504.9L504.9,129.1z"/>
</g>
</svg>
